<svg xmlns="http://www.w3.org/2000/svg" version="1.1" xmlns:xlink="http://www.w3.org/1999/xlink" xmlns:svgjs="http://svgjs.dev/svgjs" width="1000" height="1000" viewBox="0 0 1000 1000"><rect width="1000" height="1000" fill="#000000"></rect><g transform="matrix(0.7,0,0,0.7,149.63192388221472,278.2796846706004)"><svg viewBox="0 0 389 247" data-background-color="#d9bca9" preserveAspectRatio="xMidYMid meet" height="634" width="1000" xmlns="http://www.w3.org/2000/svg" xmlns:xlink="http://www.w3.org/1999/xlink"><g id="tight-bounds" transform="matrix(1,0,0,1,0.20454575220750826,-0.09999999999999432)"><svg viewBox="0 0 388.59090909090907 247.2" height="247.2" width="388.59090909090907"><g><svg viewBox="0 0 388.59090909090907 247.2" height="247.2" width="388.59090909090907"><g><svg viewBox="0 0 388.59090909090907 247.2" height="247.2" width="388.59090909090907"><g id="textblocktransform"><svg viewBox="0 0 388.59090909090907 247.2" height="247.2" width="388.59090909090907" id="textblock"><g><svg viewBox="0 0 388.59090909090907 247.2" height="247.2" width="388.59090909090907"><g transform="matrix(1,0,0,1,0,0)"><svg width="388.59090909090907" viewBox="-2.3499999046325684 -38.04999923706055 62.25 39.599998474121094" height="247.2" data-palette-color="#000000"><path d="M59.1-9Q59.9-8.55 59.9-6.95L59.9-6.95Q59.9-5 58.93-3.03 57.95-1.05 56.18 0.25 54.4 1.55 52.05 1.55L52.05 1.55Q48.15 1.55 46.1-2.05 44.05-5.65 44.05-11.25L44.05-11.25Q44.05-14.6 44.75-18.45 45.45-22.3 46.45-25.65L46.45-25.65Q44.45-22.75 41.98-18.78 39.5-14.8 33.45-4.75L33.45-4.75Q32.35-2.9 32.35-2.1L32.35-2.1Q32.35-1.85 32.43-1.63 32.5-1.4 32.5-1.25L32.5-1.25Q32.5-1 32.1-0.9L32.1-0.9Q30.6-0.4 30.13-0.15 29.65 0.1 29.55 0.1L29.55 0.1Q29.25 0.1 29-0.4L29-0.4Q29.25-0.55 29.38-0.9 29.5-1.25 29.5-2.2L29.5-2.2Q29.5-4.65 28.55-11.58 27.6-18.5 26.6-24.5L26.6-24.5Q23.4-16.45 20.63-11.13 17.85-5.8 14.23-2.35 10.6 1.1 6.05 1.1L6.05 1.1Q3.4 1.1 1.5-0.05-0.4-1.2-1.38-3.18-2.35-5.15-2.35-7.5L-2.35-7.5Q-2.35-9.6-1.65-11.28-0.95-12.95 0.1-13.9 1.15-14.85 2.15-14.85L2.15-14.85Q2.65-14.85 2.95-14.6L2.95-14.6Q0.4-11.9 0.4-8.2L0.4-8.2Q0.4-5.15 1.98-3.45 3.55-1.75 6.5-1.75L6.5-1.75Q10.35-1.75 13.4-4.75 16.45-7.75 19.13-13.1 21.8-18.45 25.85-28.3L25.85-28.3Q25.8-28.65 25.75-29.05 25.7-29.45 25.6-29.85L25.6-29.85Q25.5-30.4 25.28-32.02 25.05-33.65 25.05-34.45L25.05-34.45Q25.05-35.4 25.55-35.83 26.05-36.25 26.75-36.25L26.75-36.25Q27.55-36.25 28.33-35.77 29.1-35.3 29.1-34.05L29.1-34.05Q29.1-33.75 28.8-31.45L28.8-31.45Q28.4-28.55 28.35-27.65L28.35-27.65Q28.75-25.15 30.05-16.15L30.05-16.15 31.5-6.15Q42.5-24.8 47.5-32.3L47.5-32.3Q49.65-35.5 50.83-36.77 52-38.05 52.95-38.05L52.95-38.05Q53.8-38.05 54.5-37.23 55.2-36.4 55.45-35.5L55.45-35.5Q54.1-35.5 52.8-34.33 51.5-33.15 50.4-31L50.4-31Q48.55-27.4 47.65-22.25 46.75-17.1 46.75-12.55L46.75-12.55Q46.75-7.1 48.15-4 49.55-0.9 52.45-0.9L52.45-0.9Q54.95-0.9 56.68-3.1 58.4-5.3 59.1-9L59.1-9Z" opacity="1" transform="matrix(1,0,0,1,0,0)" fill="#ffffff" class="undefined-text-0" data-fill-palette-color="primary" id="text-0"></path></svg></g></svg></g></svg></g></svg></g><g></g></svg></g><defs></defs></svg><rect width="388.59090909090907" height="247.2" fill="none" stroke="none" visibility="hidden"></rect></g></svg></g></svg>